C:\GBW_MyPrograms\KinderuniversiteitApp\Resultaten\Ellis_v10102025\Aarde\Aarde_v4.mot
version=1
nRows=11
nColumns=29
inDegrees=yes
endheader
                time	         pelvis_tilt	           pelvis_tx	           pelvis_ty	       hip_flexion_l	       hip_flexion_r	        knee_angle_l	        knee_angle_r	       ankle_angle_l	       ankle_angle_r	    lumbar_extension	hamstrings_r/activation	bifemsh_r/activation	glut_max_r/activation	iliopsoas_r/activation	rect_fem_r/activation	  vasti_r/activation	gastroc_r/activation	 soleus_r/activation	tib_ant_r/activation	hamstrings_l/activation	bifemsh_l/activation	glut_max_l/activation	iliopsoas_l/activation	rect_fem_l/activation	  vasti_l/activation	gastroc_l/activation	 soleus_l/activation	tib_ant_l/activation	
          1.35418518	         -6.08499410	          1.78626277	          0.90345922	         29.41351631	         -9.04559453	        -20.17517243	        -18.71428662	          9.88341963	         -4.81231623	         -1.82307273	          0.07828700	          0.28712459	          0.08552551	          0.66116867	          0.54692258	          0.11624333	          0.24927702	          0.17823606	          0.05122538	          0.33710885	          0.23367642	          0.27734424	          0.10254342	          0.11688739	          0.16319106	          0.08822114	          0.09502624	          0.36836747	
          1.36321308	         -6.20497597	          1.80133719	          0.90158777	         29.02861319	         -9.23109579	        -20.27999105	        -19.65668295	          9.76317472	         -6.08552396	         -1.31594100	          0.08228028	          0.26777859	          0.11809545	          0.66095547	          0.48020880	          0.10590558	          0.21720421	          0.15540530	          0.07731977	          0.31339401	          0.21689270	          0.30167776	          0.09052951	          0.10685784	          0.22447676	          0.07972624	          0.08538402	          0.40670144	
          1.37224098	         -6.32630373	          1.81661128	          0.89953175	         28.46039158	         -9.23858738	        -20.73551045	        -20.94408194	          9.74064337	         -7.26765586	         -0.77929023	          0.12491724	          0.25005840	          0.17075729	          0.58096323	          0.41940397	          0.09421704	          0.18925059	          0.13541858	          0.29572009	          0.28259633	          0.20865339	          0.31257200	          0.07992265	          0.09522149	          0.28220683	          0.08210053	          0.08651093	          0.36338551	
          1.38126888	         -6.44725493	          1.83184503	          0.89737983	         27.75185597	         -9.09548655	        -21.09084847	        -22.50920618	          9.88769411	         -8.01069538	         -0.24608572	          0.12576954	          0.23131467	          0.22368990	          0.57309225	          0.36978588	          0.08418301	          0.16637778	          0.11985513	          0.26871610	          0.24728566	          0.19731998	          0.31572967	          0.07085932	          0.08635920	          0.32761543	          0.07326473	          0.07642375	          0.41596544	
          1.39029678	         -6.57082944	          1.84672783	          0.89534528	         27.14034519	         -8.83901028	        -21.55772829	        -24.05434255	          9.90423643	         -8.02820669	          0.24668427	          0.14100828	          0.22431323	          0.19840538	          0.55942829	          0.32715140	          0.07525884	          0.14707504	          0.10519884	          0.30130079	          0.21652970	          0.18017015	          0.33283971	          0.06388752	          0.08293316	          0.39410700	          0.06939365	          0.08168265	          0.39276822	
          1.39932469	         -6.69369552	          1.86113002	          0.89368243	         26.71082109	         -8.43171654	        -22.32303856	        -25.58599934	         10.17318388	         -7.88515719	          0.67834282	          0.14327168	          0.23032090	          0.17458058	          0.53355623	          0.31143313	          0.06720832	          0.13455378	          0.09412007	          0.29877548	          0.18995287	          0.16871675	          0.32930026	          0.06133469	          0.08449967	          0.46379778	          0.06784362	          0.08918390	          0.36287607	
          1.40835259	         -6.81251979	          1.87507038	          0.89253206	         26.35630299	         -7.85378016	        -23.21372453	        -27.17507702	         10.82243990	         -7.34068356	          1.04796122	          0.15668272	          0.24970904	          0.15365657	          0.48883611	          0.29039875	          0.06071146	          0.12085307	          0.08293151	          0.29870730	          0.16797497	          0.16313089	          0.31431595	          0.06263602	          0.08419134	          0.52617082	          0.08212957	          0.12775824	          0.32096840	
          1.41738049	         -6.92647564	          1.88860895	          0.89199254	         25.93629153	         -7.11195968	        -23.93991328	        -28.77878111	         11.43129360	         -6.72291793	          1.36294637	          0.17480724	          0.25566566	          0.13608112	          0.43292091	          0.29615310	          0.05643417	          0.10985988	          0.07362576	          0.27980070	          0.15149354	          0.16653060	          0.29241242	          0.06199184	          0.08084030	          0.54433894	          0.09375847	          0.15519070	          0.28610150	
          1.42640839	         -7.03395662	          1.90179106	          0.89208387	         25.38772512	         -6.22401554	        -24.38727411	        -30.39455020	         11.91162206	         -6.01295283	          1.62768283	          0.20082668	          0.26155272	          0.12095435	          0.37991490	          0.31909198	          0.05510148	          0.09960878	          0.06577491	          0.26750963	          0.14157666	          0.17004824	          0.26321711	          0.06078870	          0.07759382	          0.52527735	          0.10848781	          0.18066680	          0.25989068	
          1.43543629	         -7.13336265	          1.91465788	          0.89276211	         24.71144559	         -5.22386532	        -24.56472600	        -31.96776489	         12.24927675	         -5.24460311	          1.84583896	          0.22312876	          0.27305398	          0.10812746	          0.33288618	          0.34154899	          0.05471024	          0.09124455	          0.05965626	          0.25070375	          0.13497336	          0.16861581	          0.23510448	          0.05953025	          0.07590301	          0.48310011	          0.12488221	          0.20237811	          0.24080543	
          1.44446419	         -7.22234045	          1.92724763	          0.89394090	         23.92811138	         -4.14337714	        -24.51701960	        -33.45578653	         12.43899697	         -4.49490502	          2.01960902	          0.24150387	          0.29317427	          0.09690798	          0.29180917	          0.35710187	          0.05456224	          0.08429174	          0.05609170	          0.24088934	          0.13046617	          0.16275239	          0.20981737	          0.05868404	          0.07646172	          0.43153297	          0.14240747	          0.21970226	          0.22393870	
